<?xml version="1.0" standalone="no"?>
<!DOCTYPE svg PUBLIC "-//W3C//DTD SVG 20010904//EN"
 "http://www.w3.org/TR/2001/REC-SVG-20010904/DTD/svg10.dtd">
<svg version="1.0" xmlns="http://www.w3.org/2000/svg"
 width="100.000000pt" height="100.000000pt" viewBox="0 0 200.000000 200.000000"
 preserveAspectRatio="xMidYMid meet">

<g transform="translate(0.000000,200.000000) scale(0.100000,-0.100000)"
fill="#383961" stroke="4" stroke-width="4">
<path d="M497 1487 l-498 -492 496 -488 c272 -269 499 -487 504 -485 4 1 232
224 505 493 l497 491 -495 487 c-272 268 -498 487 -503 486 -4 0 -232 -222
-506 -492z m1402 -471 c9 -10 -80 -103 -429 -446 l-440 -432 0 203 -1 204 233
228 233 227 -233 228 -232 227 0 209 0 208 429 -421 c236 -232 434 -427 440
-435z m-1161 212 l-233 -228 233 -227 233 -228 -3 -206 -3 -207 -439 431 -439
432 439 431 439 432 3 -202 3 -201 -233 -227z m230 -411 l-3 -182 -185 182
-185 183 185 182 185 183 3 -183 c1 -100 1 -264 0 -365z m287 334 l150 -151
-140 -141 c-77 -77 -161 -158 -187 -181 l-48 -40 0 362 0 362 38 -30 c20 -17
104 -98 187 -181z"/>
</g>
</svg>
