<?xml version="1.0" standalone="no"?>
<!DOCTYPE svg PUBLIC "-//W3C//DTD SVG 20010904//EN"
 "http://www.w3.org/TR/2001/REC-SVG-20010904/DTD/svg10.dtd">
<svg version="1.0" xmlns="http://www.w3.org/2000/svg"
 width="404.000000pt" height="396.000000pt" viewBox="0 0 404.000000 396.000000"
 preserveAspectRatio="xMidYMid meet">

<g transform="translate(0.000000,396.000000) scale(0.100000,-0.100000)"
fill="#000000" stroke="none">
<path d="M0 1980 l0 -1980 2020 0 2020 0 0 1980 0 1980 -2020 0 -2020 0 0
-1980z m2235 1613 c592 -584 929 -916 1253 -1237 l363 -360 -168 -166 c-308
-303 -884 -871 -1276 -1259 l-388 -384 -297 294 c-318 315 -848 839 -1262
1247 l-255 252 210 207 c1289 1272 1616 1593 1623 1593 3 0 92 -84 197 -187z"/>
<path d="M2090 3196 l0 -378 420 -415 419 -414 -410 -407 c-226 -224 -415
-408 -420 -410 -5 -2 -9 -163 -9 -374 l0 -370 277 271 c153 149 512 502 798
785 l520 515 -150 147 c-243 239 -889 877 -1177 1163 l-268 266 0 -379z"/>
<path d="M1860 3448 c-402 -391 -1480 -1460 -1480 -1469 0 -6 1245 -1240 1475
-1461 l110 -106 3 371 3 372 -423 417 -423 418 120 117 c66 64 256 251 423
416 l302 300 0 364 c0 199 -1 363 -2 363 -2 0 -50 -46 -108 -102z"/>
<path d="M1630 2319 l-335 -329 335 -332 335 -333 3 333 c1 182 1 480 0 661
l-3 328 -335 -328z"/>
<path d="M2090 1990 l0 -664 158 154 c86 85 238 234 336 331 l179 177 -329
325 c-181 179 -332 328 -336 333 -5 4 -8 -291 -8 -656z"/>
</g>
</svg>
